<mxfile host="Electron" agent="Mozilla/5.0 (Windows NT 10.0; Win64; x64) AppleWebKit/537.36 (KHTML, like Gecko) draw.io/25.0.2 Chrome/128.0.6613.186 Electron/32.2.5 Safari/537.36" version="25.0.2" pages="7">
  <diagram name="main" id="EsspFKWxQ_4Z_RFMazA9">
    <mxGraphModel dx="1433" dy="797" grid="1" gridSize="10" guides="1" tooltips="1" connect="1" arrows="1" fold="1" page="1" pageScale="1" pageWidth="827" pageHeight="1169" math="0" shadow="0">
      <root>
        <mxCell id="0" />
        <mxCell id="1" parent="0" />
        <mxCell id="gjAVs64p10JaogHvOwGG-3" value="" style="edgeStyle=orthogonalEdgeStyle;rounded=0;orthogonalLoop=1;jettySize=auto;html=1;" edge="1" parent="1" source="gjAVs64p10JaogHvOwGG-1" target="gjAVs64p10JaogHvOwGG-2">
          <mxGeometry relative="1" as="geometry" />
        </mxCell>
        <mxCell id="gjAVs64p10JaogHvOwGG-1" value="Начало" style="ellipse;whiteSpace=wrap;html=1;" vertex="1" parent="1">
          <mxGeometry x="340" y="40" width="120" height="40" as="geometry" />
        </mxCell>
        <mxCell id="gjAVs64p10JaogHvOwGG-7" value="" style="edgeStyle=orthogonalEdgeStyle;rounded=0;orthogonalLoop=1;jettySize=auto;html=1;" edge="1" parent="1" source="gjAVs64p10JaogHvOwGG-2" target="gjAVs64p10JaogHvOwGG-6">
          <mxGeometry relative="1" as="geometry" />
        </mxCell>
        <mxCell id="gjAVs64p10JaogHvOwGG-2" value="int main()" style="shape=process;whiteSpace=wrap;html=1;backgroundOutline=1;" vertex="1" parent="1">
          <mxGeometry x="340" y="120" width="120" height="40" as="geometry" />
        </mxCell>
        <mxCell id="gjAVs64p10JaogHvOwGG-4" value="" style="endArrow=none;dashed=1;html=1;rounded=0;" edge="1" parent="1" target="gjAVs64p10JaogHvOwGG-5">
          <mxGeometry width="50" height="50" relative="1" as="geometry">
            <mxPoint x="400" y="100" as="sourcePoint" />
            <mxPoint x="560" y="100" as="targetPoint" />
          </mxGeometry>
        </mxCell>
        <mxCell id="gjAVs64p10JaogHvOwGG-5" value="&lt;div&gt;#include &amp;lt;iostream&amp;gt;&lt;/div&gt;&lt;div&gt;#include &amp;lt;clocale&amp;gt;&lt;/div&gt;&lt;div&gt;#include &amp;lt;fstream&amp;gt;&lt;/div&gt;&lt;div&gt;using namespace std;&lt;/div&gt;&lt;div&gt;&lt;br&gt;&lt;/div&gt;&lt;div&gt;void show_arr(int* arr, int start, int end);&lt;/div&gt;&lt;div&gt;int get_arr_size(string filename);&lt;/div&gt;&lt;div&gt;void fill_arr(int* arr, int size, string filename);&lt;/div&gt;&lt;div&gt;void arr_to_file(int* arr, int size, string filename);&lt;/div&gt;&lt;div&gt;void merge(int* arr, int start, int mid, int end);&lt;/div&gt;&lt;div&gt;void natural_sort(int* arr, int size);0,&lt;/div&gt;" style="strokeWidth=2;html=1;shape=mxgraph.flowchart.annotation_1;align=left;pointerEvents=1;" vertex="1" parent="1">
          <mxGeometry x="520" y="20" width="50" height="160" as="geometry" />
        </mxCell>
        <mxCell id="gjAVs64p10JaogHvOwGG-10" value="" style="edgeStyle=orthogonalEdgeStyle;rounded=0;orthogonalLoop=1;jettySize=auto;html=1;" edge="1" parent="1" source="gjAVs64p10JaogHvOwGG-6" target="gjAVs64p10JaogHvOwGG-9">
          <mxGeometry relative="1" as="geometry" />
        </mxCell>
        <mxCell id="gjAVs64p10JaogHvOwGG-6" value="setlocale(LC_ALL, &quot;RU&quot;);" style="whiteSpace=wrap;html=1;" vertex="1" parent="1">
          <mxGeometry x="330" y="200" width="140" height="40" as="geometry" />
        </mxCell>
        <mxCell id="gjAVs64p10JaogHvOwGG-8" value="{" style="text;html=1;align=center;verticalAlign=middle;resizable=0;points=[];autosize=1;strokeColor=none;fillColor=none;" vertex="1" parent="1">
          <mxGeometry x="370" y="160" width="30" height="30" as="geometry" />
        </mxCell>
        <mxCell id="gjAVs64p10JaogHvOwGG-12" value="" style="edgeStyle=orthogonalEdgeStyle;rounded=0;orthogonalLoop=1;jettySize=auto;html=1;" edge="1" parent="1" source="gjAVs64p10JaogHvOwGG-9" target="gjAVs64p10JaogHvOwGG-11">
          <mxGeometry relative="1" as="geometry" />
        </mxCell>
        <mxCell id="gjAVs64p10JaogHvOwGG-9" value="int size = get_arr_size(&quot;F1.txt&quot;);" style="whiteSpace=wrap;html=1;" vertex="1" parent="1">
          <mxGeometry x="315" y="260" width="170" height="40" as="geometry" />
        </mxCell>
        <mxCell id="gjAVs64p10JaogHvOwGG-14" value="" style="edgeStyle=orthogonalEdgeStyle;rounded=0;orthogonalLoop=1;jettySize=auto;html=1;" edge="1" parent="1" source="gjAVs64p10JaogHvOwGG-11" target="gjAVs64p10JaogHvOwGG-13">
          <mxGeometry relative="1" as="geometry" />
        </mxCell>
        <mxCell id="gjAVs64p10JaogHvOwGG-11" value="int* arr = new int[size];" style="whiteSpace=wrap;html=1;" vertex="1" parent="1">
          <mxGeometry x="315" y="320" width="170" height="40" as="geometry" />
        </mxCell>
        <mxCell id="gjAVs64p10JaogHvOwGG-16" value="" style="edgeStyle=orthogonalEdgeStyle;rounded=0;orthogonalLoop=1;jettySize=auto;html=1;" edge="1" parent="1" source="gjAVs64p10JaogHvOwGG-13" target="gjAVs64p10JaogHvOwGG-15">
          <mxGeometry relative="1" as="geometry" />
        </mxCell>
        <mxCell id="gjAVs64p10JaogHvOwGG-13" value="fill_arr(arr, size, &quot;F1.txt&quot;);" style="whiteSpace=wrap;html=1;" vertex="1" parent="1">
          <mxGeometry x="315" y="380" width="170" height="40" as="geometry" />
        </mxCell>
        <mxCell id="gjAVs64p10JaogHvOwGG-18" value="" style="edgeStyle=orthogonalEdgeStyle;rounded=0;orthogonalLoop=1;jettySize=auto;html=1;" edge="1" parent="1" source="gjAVs64p10JaogHvOwGG-15" target="gjAVs64p10JaogHvOwGG-17">
          <mxGeometry relative="1" as="geometry" />
        </mxCell>
        <mxCell id="gjAVs64p10JaogHvOwGG-15" value="show_arr(arr, 0, size - 1);" style="whiteSpace=wrap;html=1;" vertex="1" parent="1">
          <mxGeometry x="315" y="440" width="170" height="40" as="geometry" />
        </mxCell>
        <mxCell id="gjAVs64p10JaogHvOwGG-20" value="" style="edgeStyle=orthogonalEdgeStyle;rounded=0;orthogonalLoop=1;jettySize=auto;html=1;" edge="1" parent="1" source="gjAVs64p10JaogHvOwGG-17" target="gjAVs64p10JaogHvOwGG-19">
          <mxGeometry relative="1" as="geometry" />
        </mxCell>
        <mxCell id="gjAVs64p10JaogHvOwGG-17" value="natural_sort(arr, size);" style="whiteSpace=wrap;html=1;" vertex="1" parent="1">
          <mxGeometry x="315" y="500" width="170" height="40" as="geometry" />
        </mxCell>
        <mxCell id="gjAVs64p10JaogHvOwGG-22" value="" style="edgeStyle=orthogonalEdgeStyle;rounded=0;orthogonalLoop=1;jettySize=auto;html=1;" edge="1" parent="1" source="gjAVs64p10JaogHvOwGG-19" target="gjAVs64p10JaogHvOwGG-21">
          <mxGeometry relative="1" as="geometry" />
        </mxCell>
        <mxCell id="gjAVs64p10JaogHvOwGG-19" value="show_arr(arr, 0, size - 1);" style="whiteSpace=wrap;html=1;" vertex="1" parent="1">
          <mxGeometry x="315" y="560" width="170" height="40" as="geometry" />
        </mxCell>
        <mxCell id="gjAVs64p10JaogHvOwGG-24" style="edgeStyle=orthogonalEdgeStyle;rounded=0;orthogonalLoop=1;jettySize=auto;html=1;entryX=0.5;entryY=0;entryDx=0;entryDy=0;" edge="1" parent="1" source="gjAVs64p10JaogHvOwGG-21" target="gjAVs64p10JaogHvOwGG-23">
          <mxGeometry relative="1" as="geometry" />
        </mxCell>
        <mxCell id="gjAVs64p10JaogHvOwGG-21" value="arr_to_file(arr, size, &quot;F2.txt&quot;);" style="whiteSpace=wrap;html=1;" vertex="1" parent="1">
          <mxGeometry x="315" y="620" width="170" height="40" as="geometry" />
        </mxCell>
        <mxCell id="gjAVs64p10JaogHvOwGG-23" value="return 0;" style="ellipse;whiteSpace=wrap;html=1;" vertex="1" parent="1">
          <mxGeometry x="340" y="680" width="120" height="40" as="geometry" />
        </mxCell>
        <mxCell id="gjAVs64p10JaogHvOwGG-25" value="}" style="text;html=1;align=center;verticalAlign=middle;resizable=0;points=[];autosize=1;strokeColor=none;fillColor=none;" vertex="1" parent="1">
          <mxGeometry x="400" y="720" width="30" height="30" as="geometry" />
        </mxCell>
      </root>
    </mxGraphModel>
  </diagram>
  <diagram id="b4GGo2ooQm38JyrTSd2N" name="show_arr">
    <mxGraphModel dx="921" dy="512" grid="1" gridSize="10" guides="1" tooltips="1" connect="1" arrows="1" fold="1" page="1" pageScale="1" pageWidth="827" pageHeight="1169" math="0" shadow="0">
      <root>
        <mxCell id="0" />
        <mxCell id="1" parent="0" />
        <mxCell id="0MT1axa9Dr2W48O-NI7o-3" value="" style="edgeStyle=orthogonalEdgeStyle;rounded=0;orthogonalLoop=1;jettySize=auto;html=1;" edge="1" parent="1" source="0MT1axa9Dr2W48O-NI7o-1" target="0MT1axa9Dr2W48O-NI7o-2">
          <mxGeometry relative="1" as="geometry" />
        </mxCell>
        <mxCell id="0MT1axa9Dr2W48O-NI7o-1" value="void show_arr(int* arr, int start, int end)" style="shape=process;whiteSpace=wrap;html=1;backgroundOutline=1;size=0.04;" vertex="1" parent="1">
          <mxGeometry x="280" y="40" width="240" height="40" as="geometry" />
        </mxCell>
        <mxCell id="0MT1axa9Dr2W48O-NI7o-6" value="" style="edgeStyle=orthogonalEdgeStyle;rounded=0;orthogonalLoop=1;jettySize=auto;html=1;" edge="1" parent="1" source="0MT1axa9Dr2W48O-NI7o-2" target="0MT1axa9Dr2W48O-NI7o-5">
          <mxGeometry relative="1" as="geometry" />
        </mxCell>
        <mxCell id="0MT1axa9Dr2W48O-NI7o-2" value="cout &amp;lt;&amp;lt; &#39;{&#39;;" style="shape=parallelogram;perimeter=parallelogramPerimeter;whiteSpace=wrap;html=1;fixedSize=1;" vertex="1" parent="1">
          <mxGeometry x="340" y="120" width="120" height="40" as="geometry" />
        </mxCell>
        <mxCell id="0MT1axa9Dr2W48O-NI7o-4" value="{" style="text;html=1;align=center;verticalAlign=middle;resizable=0;points=[];autosize=1;strokeColor=none;fillColor=none;" vertex="1" parent="1">
          <mxGeometry x="375" y="78" width="30" height="30" as="geometry" />
        </mxCell>
        <mxCell id="0MT1axa9Dr2W48O-NI7o-8" value="" style="edgeStyle=orthogonalEdgeStyle;rounded=0;orthogonalLoop=1;jettySize=auto;html=1;" edge="1" parent="1" source="0MT1axa9Dr2W48O-NI7o-5" target="0MT1axa9Dr2W48O-NI7o-7">
          <mxGeometry relative="1" as="geometry" />
        </mxCell>
        <mxCell id="0MT1axa9Dr2W48O-NI7o-12" value="" style="edgeStyle=orthogonalEdgeStyle;rounded=0;orthogonalLoop=1;jettySize=auto;html=1;" edge="1" parent="1" source="0MT1axa9Dr2W48O-NI7o-5" target="0MT1axa9Dr2W48O-NI7o-11">
          <mxGeometry relative="1" as="geometry" />
        </mxCell>
        <mxCell id="0MT1axa9Dr2W48O-NI7o-5" value="for (int i = start; i &amp;lt;= end; i++)" style="shape=hexagon;perimeter=hexagonPerimeter2;whiteSpace=wrap;html=1;fixedSize=1;" vertex="1" parent="1">
          <mxGeometry x="310" y="180" width="180" height="40" as="geometry" />
        </mxCell>
        <mxCell id="0MT1axa9Dr2W48O-NI7o-10" style="edgeStyle=orthogonalEdgeStyle;rounded=0;orthogonalLoop=1;jettySize=auto;html=1;entryX=0;entryY=0.5;entryDx=0;entryDy=0;" edge="1" parent="1" source="0MT1axa9Dr2W48O-NI7o-7" target="0MT1axa9Dr2W48O-NI7o-5">
          <mxGeometry relative="1" as="geometry">
            <Array as="points">
              <mxPoint x="400" y="320" />
              <mxPoint x="255" y="320" />
              <mxPoint x="255" y="200" />
            </Array>
          </mxGeometry>
        </mxCell>
        <mxCell id="0MT1axa9Dr2W48O-NI7o-7" value="cout &amp;lt;&amp;lt; arr[i] &amp;lt;&amp;lt; ((i == end) ? &quot;}\n&quot; : &quot;, &quot;);" style="shape=parallelogram;perimeter=parallelogramPerimeter;whiteSpace=wrap;html=1;fixedSize=1;" vertex="1" parent="1">
          <mxGeometry x="275" y="260" width="250" height="40" as="geometry" />
        </mxCell>
        <mxCell id="0MT1axa9Dr2W48O-NI7o-9" value="1" style="text;html=1;align=center;verticalAlign=middle;resizable=0;points=[];autosize=1;strokeColor=none;fillColor=none;" vertex="1" parent="1">
          <mxGeometry x="399" y="230" width="30" height="30" as="geometry" />
        </mxCell>
        <mxCell id="_eJ8LDBTPnsvWOqn-8oa-2" style="edgeStyle=orthogonalEdgeStyle;rounded=0;orthogonalLoop=1;jettySize=auto;html=1;entryX=0.5;entryY=0;entryDx=0;entryDy=0;" edge="1" parent="1" source="0MT1axa9Dr2W48O-NI7o-11" target="_eJ8LDBTPnsvWOqn-8oa-1">
          <mxGeometry relative="1" as="geometry" />
        </mxCell>
        <mxCell id="0MT1axa9Dr2W48O-NI7o-11" value="cout &amp;lt;&amp;lt; endl;" style="shape=parallelogram;perimeter=parallelogramPerimeter;whiteSpace=wrap;html=1;fixedSize=1;" vertex="1" parent="1">
          <mxGeometry x="580" y="240" width="120" height="40" as="geometry" />
        </mxCell>
        <mxCell id="0MT1axa9Dr2W48O-NI7o-13" value="0" style="text;html=1;align=center;verticalAlign=middle;resizable=0;points=[];autosize=1;strokeColor=none;fillColor=none;" vertex="1" parent="1">
          <mxGeometry x="615" y="178" width="30" height="30" as="geometry" />
        </mxCell>
        <mxCell id="_eJ8LDBTPnsvWOqn-8oa-1" value="return;" style="ellipse;whiteSpace=wrap;html=1;" vertex="1" parent="1">
          <mxGeometry x="580" y="300" width="120" height="40" as="geometry" />
        </mxCell>
        <mxCell id="_eJ8LDBTPnsvWOqn-8oa-3" value="}" style="text;html=1;align=center;verticalAlign=middle;resizable=0;points=[];autosize=1;strokeColor=none;fillColor=none;" vertex="1" parent="1">
          <mxGeometry x="635" y="338" width="30" height="30" as="geometry" />
        </mxCell>
      </root>
    </mxGraphModel>
  </diagram>
  <diagram id="kDPVXjirHUOLk0FFvynD" name="get_arr_size">
    <mxGraphModel dx="956" dy="531" grid="1" gridSize="10" guides="1" tooltips="1" connect="1" arrows="1" fold="1" page="1" pageScale="1" pageWidth="827" pageHeight="1169" math="0" shadow="0">
      <root>
        <mxCell id="0" />
        <mxCell id="1" parent="0" />
        <mxCell id="Icc0_7Quajt3o7A986aH-3" value="" style="edgeStyle=orthogonalEdgeStyle;rounded=0;orthogonalLoop=1;jettySize=auto;html=1;" edge="1" parent="1" source="Icc0_7Quajt3o7A986aH-1" target="Icc0_7Quajt3o7A986aH-2">
          <mxGeometry relative="1" as="geometry" />
        </mxCell>
        <mxCell id="Icc0_7Quajt3o7A986aH-1" value="int get_arr_size(string filename)" style="shape=process;whiteSpace=wrap;html=1;backgroundOutline=1;size=0.047619047619047616;" vertex="1" parent="1">
          <mxGeometry x="300" y="40" width="200" height="40" as="geometry" />
        </mxCell>
        <mxCell id="Icc0_7Quajt3o7A986aH-6" value="" style="edgeStyle=orthogonalEdgeStyle;rounded=0;orthogonalLoop=1;jettySize=auto;html=1;" edge="1" parent="1" source="Icc0_7Quajt3o7A986aH-2" target="Icc0_7Quajt3o7A986aH-5">
          <mxGeometry relative="1" as="geometry" />
        </mxCell>
        <mxCell id="Icc0_7Quajt3o7A986aH-2" value="ifstream fin(filename);" style="whiteSpace=wrap;html=1;" vertex="1" parent="1">
          <mxGeometry x="340" y="120" width="120" height="40" as="geometry" />
        </mxCell>
        <mxCell id="Icc0_7Quajt3o7A986aH-4" value="{" style="text;html=1;align=center;verticalAlign=middle;resizable=0;points=[];autosize=1;strokeColor=none;fillColor=none;" vertex="1" parent="1">
          <mxGeometry x="370" y="80" width="30" height="30" as="geometry" />
        </mxCell>
        <mxCell id="Icc0_7Quajt3o7A986aH-8" value="" style="edgeStyle=orthogonalEdgeStyle;rounded=0;orthogonalLoop=1;jettySize=auto;html=1;" edge="1" parent="1" source="Icc0_7Quajt3o7A986aH-5" target="Icc0_7Quajt3o7A986aH-7">
          <mxGeometry relative="1" as="geometry" />
        </mxCell>
        <mxCell id="Icc0_7Quajt3o7A986aH-5" value="int count = 0;" style="whiteSpace=wrap;html=1;" vertex="1" parent="1">
          <mxGeometry x="340" y="180" width="120" height="40" as="geometry" />
        </mxCell>
        <mxCell id="Icc0_7Quajt3o7A986aH-10" value="" style="edgeStyle=orthogonalEdgeStyle;rounded=0;orthogonalLoop=1;jettySize=auto;html=1;" edge="1" parent="1" source="Icc0_7Quajt3o7A986aH-7" target="Icc0_7Quajt3o7A986aH-9">
          <mxGeometry relative="1" as="geometry" />
        </mxCell>
        <mxCell id="Icc0_7Quajt3o7A986aH-7" value="int t;" style="whiteSpace=wrap;html=1;" vertex="1" parent="1">
          <mxGeometry x="340" y="240" width="120" height="40" as="geometry" />
        </mxCell>
        <mxCell id="Icc0_7Quajt3o7A986aH-12" value="" style="edgeStyle=orthogonalEdgeStyle;rounded=0;orthogonalLoop=1;jettySize=auto;html=1;" edge="1" parent="1" source="Icc0_7Quajt3o7A986aH-9" target="Icc0_7Quajt3o7A986aH-11">
          <mxGeometry relative="1" as="geometry" />
        </mxCell>
        <mxCell id="Icc0_7Quajt3o7A986aH-16" value="" style="edgeStyle=orthogonalEdgeStyle;rounded=0;orthogonalLoop=1;jettySize=auto;html=1;entryX=0.5;entryY=0;entryDx=0;entryDy=0;" edge="1" parent="1" source="Icc0_7Quajt3o7A986aH-9" target="Icc0_7Quajt3o7A986aH-15">
          <mxGeometry relative="1" as="geometry" />
        </mxCell>
        <mxCell id="Icc0_7Quajt3o7A986aH-9" value="while (fin &amp;gt;&amp;gt; t)" style="rhombus;whiteSpace=wrap;html=1;" vertex="1" parent="1">
          <mxGeometry x="340" y="320" width="120" height="40" as="geometry" />
        </mxCell>
        <mxCell id="Icc0_7Quajt3o7A986aH-14" style="edgeStyle=orthogonalEdgeStyle;rounded=0;orthogonalLoop=1;jettySize=auto;html=1;" edge="1" parent="1" source="Icc0_7Quajt3o7A986aH-11">
          <mxGeometry relative="1" as="geometry">
            <mxPoint x="400" y="300" as="targetPoint" />
            <Array as="points">
              <mxPoint x="400" y="460" />
              <mxPoint x="310" y="460" />
              <mxPoint x="310" y="300" />
            </Array>
          </mxGeometry>
        </mxCell>
        <mxCell id="Icc0_7Quajt3o7A986aH-11" value="count++;" style="whiteSpace=wrap;html=1;" vertex="1" parent="1">
          <mxGeometry x="340" y="400" width="120" height="40" as="geometry" />
        </mxCell>
        <mxCell id="Icc0_7Quajt3o7A986aH-13" value="1" style="text;html=1;align=center;verticalAlign=middle;resizable=0;points=[];autosize=1;strokeColor=none;fillColor=none;" vertex="1" parent="1">
          <mxGeometry x="399" y="370" width="30" height="30" as="geometry" />
        </mxCell>
        <mxCell id="SvGOgbTAuNilA_Q2hMGH-2" style="edgeStyle=orthogonalEdgeStyle;rounded=0;orthogonalLoop=1;jettySize=auto;html=1;entryX=0.5;entryY=0;entryDx=0;entryDy=0;" edge="1" parent="1" source="Icc0_7Quajt3o7A986aH-15" target="SvGOgbTAuNilA_Q2hMGH-1">
          <mxGeometry relative="1" as="geometry" />
        </mxCell>
        <mxCell id="Icc0_7Quajt3o7A986aH-15" value="fin.close();" style="whiteSpace=wrap;html=1;" vertex="1" parent="1">
          <mxGeometry x="540" y="360" width="120" height="40" as="geometry" />
        </mxCell>
        <mxCell id="Icc0_7Quajt3o7A986aH-17" value="0" style="text;html=1;align=center;verticalAlign=middle;resizable=0;points=[];autosize=1;strokeColor=none;fillColor=none;" vertex="1" parent="1">
          <mxGeometry x="575" y="318" width="30" height="30" as="geometry" />
        </mxCell>
        <mxCell id="SvGOgbTAuNilA_Q2hMGH-1" value="return count;" style="ellipse;whiteSpace=wrap;html=1;" vertex="1" parent="1">
          <mxGeometry x="540" y="420" width="120" height="40" as="geometry" />
        </mxCell>
        <mxCell id="SvGOgbTAuNilA_Q2hMGH-4" value="}" style="text;html=1;align=center;verticalAlign=middle;resizable=0;points=[];autosize=1;strokeColor=none;fillColor=none;" vertex="1" parent="1">
          <mxGeometry x="600" y="460" width="30" height="30" as="geometry" />
        </mxCell>
      </root>
    </mxGraphModel>
  </diagram>
  <diagram id="NULkKm9FZbF-wI7E598Z" name="fill_arr">
    <mxGraphModel dx="679" dy="377" grid="1" gridSize="10" guides="1" tooltips="1" connect="1" arrows="1" fold="1" page="1" pageScale="1" pageWidth="827" pageHeight="1169" math="0" shadow="0">
      <root>
        <mxCell id="0" />
        <mxCell id="1" parent="0" />
        <mxCell id="DlP2iGxXfagc4zblpBp2-3" value="" style="edgeStyle=orthogonalEdgeStyle;rounded=0;orthogonalLoop=1;jettySize=auto;html=1;" edge="1" parent="1" source="DlP2iGxXfagc4zblpBp2-1" target="DlP2iGxXfagc4zblpBp2-2">
          <mxGeometry relative="1" as="geometry" />
        </mxCell>
        <mxCell id="DlP2iGxXfagc4zblpBp2-1" value="void fill_arr(int* arr, int size, string filename)" style="shape=process;whiteSpace=wrap;html=1;backgroundOutline=1;size=0.043478260869565216;" vertex="1" parent="1">
          <mxGeometry x="270" y="40" width="260" height="40" as="geometry" />
        </mxCell>
        <mxCell id="DlP2iGxXfagc4zblpBp2-6" value="" style="edgeStyle=orthogonalEdgeStyle;rounded=0;orthogonalLoop=1;jettySize=auto;html=1;" edge="1" parent="1" source="DlP2iGxXfagc4zblpBp2-2" target="DlP2iGxXfagc4zblpBp2-5">
          <mxGeometry relative="1" as="geometry" />
        </mxCell>
        <mxCell id="DlP2iGxXfagc4zblpBp2-2" value="ifstream fin(filename);" style="whiteSpace=wrap;html=1;" vertex="1" parent="1">
          <mxGeometry x="340" y="120" width="120" height="40" as="geometry" />
        </mxCell>
        <mxCell id="DlP2iGxXfagc4zblpBp2-4" value="{" style="text;html=1;align=center;verticalAlign=middle;resizable=0;points=[];autosize=1;strokeColor=none;fillColor=none;" vertex="1" parent="1">
          <mxGeometry x="370" y="80" width="30" height="30" as="geometry" />
        </mxCell>
        <mxCell id="DlP2iGxXfagc4zblpBp2-11" value="" style="edgeStyle=orthogonalEdgeStyle;rounded=0;orthogonalLoop=1;jettySize=auto;html=1;" edge="1" parent="1" source="DlP2iGxXfagc4zblpBp2-5" target="DlP2iGxXfagc4zblpBp2-10">
          <mxGeometry relative="1" as="geometry" />
        </mxCell>
        <mxCell id="DlP2iGxXfagc4zblpBp2-15" value="" style="edgeStyle=orthogonalEdgeStyle;rounded=0;orthogonalLoop=1;jettySize=auto;html=1;" edge="1" parent="1" source="DlP2iGxXfagc4zblpBp2-5" target="DlP2iGxXfagc4zblpBp2-14">
          <mxGeometry relative="1" as="geometry" />
        </mxCell>
        <mxCell id="DlP2iGxXfagc4zblpBp2-5" value="for (int i = 0; i &amp;lt; size; i++)" style="shape=hexagon;perimeter=hexagonPerimeter2;whiteSpace=wrap;html=1;fixedSize=1;" vertex="1" parent="1">
          <mxGeometry x="320" y="180" width="160" height="40" as="geometry" />
        </mxCell>
        <mxCell id="DlP2iGxXfagc4zblpBp2-9" value="1" style="text;html=1;align=center;verticalAlign=middle;resizable=0;points=[];autosize=1;strokeColor=none;fillColor=none;" vertex="1" parent="1">
          <mxGeometry x="399" y="230" width="30" height="30" as="geometry" />
        </mxCell>
        <mxCell id="DlP2iGxXfagc4zblpBp2-12" style="edgeStyle=orthogonalEdgeStyle;rounded=0;orthogonalLoop=1;jettySize=auto;html=1;entryX=0;entryY=0.5;entryDx=0;entryDy=0;" edge="1" parent="1" source="DlP2iGxXfagc4zblpBp2-10" target="DlP2iGxXfagc4zblpBp2-5">
          <mxGeometry relative="1" as="geometry">
            <Array as="points">
              <mxPoint x="400" y="320" />
              <mxPoint x="300" y="320" />
              <mxPoint x="300" y="200" />
            </Array>
          </mxGeometry>
        </mxCell>
        <mxCell id="DlP2iGxXfagc4zblpBp2-10" value="fin &amp;gt;&amp;gt; arr[i];" style="shape=parallelogram;perimeter=parallelogramPerimeter;whiteSpace=wrap;html=1;fixedSize=1;" vertex="1" parent="1">
          <mxGeometry x="340" y="260" width="120" height="40" as="geometry" />
        </mxCell>
        <mxCell id="LS95ZXB4wJJFU-29LbJG-2" style="edgeStyle=orthogonalEdgeStyle;rounded=0;orthogonalLoop=1;jettySize=auto;html=1;entryX=0.5;entryY=0;entryDx=0;entryDy=0;" edge="1" parent="1" source="DlP2iGxXfagc4zblpBp2-14" target="LS95ZXB4wJJFU-29LbJG-1">
          <mxGeometry relative="1" as="geometry" />
        </mxCell>
        <mxCell id="DlP2iGxXfagc4zblpBp2-14" value="fin.close();" style="whiteSpace=wrap;html=1;" vertex="1" parent="1">
          <mxGeometry x="500" y="240" width="120" height="40" as="geometry" />
        </mxCell>
        <mxCell id="DlP2iGxXfagc4zblpBp2-16" value="0" style="text;html=1;align=center;verticalAlign=middle;resizable=0;points=[];autosize=1;strokeColor=none;fillColor=none;" vertex="1" parent="1">
          <mxGeometry x="535" y="168" width="30" height="30" as="geometry" />
        </mxCell>
        <mxCell id="LS95ZXB4wJJFU-29LbJG-1" value="return;" style="ellipse;whiteSpace=wrap;html=1;" vertex="1" parent="1">
          <mxGeometry x="500" y="300" width="120" height="40" as="geometry" />
        </mxCell>
        <mxCell id="LS95ZXB4wJJFU-29LbJG-3" value="}" style="text;html=1;align=center;verticalAlign=middle;resizable=0;points=[];autosize=1;strokeColor=none;fillColor=none;" vertex="1" parent="1">
          <mxGeometry x="560" y="340" width="30" height="30" as="geometry" />
        </mxCell>
      </root>
    </mxGraphModel>
  </diagram>
  <diagram id="cDoM4hUTlmdQ-QqkwXz8" name="arr_to_file">
    <mxGraphModel dx="1032" dy="574" grid="1" gridSize="10" guides="1" tooltips="1" connect="1" arrows="1" fold="1" page="1" pageScale="1" pageWidth="827" pageHeight="1169" math="0" shadow="0">
      <root>
        <mxCell id="0" />
        <mxCell id="1" parent="0" />
        <mxCell id="Oxv_kJwq-PlbMtz_pMBo-3" value="" style="edgeStyle=orthogonalEdgeStyle;rounded=0;orthogonalLoop=1;jettySize=auto;html=1;" edge="1" parent="1" source="Oxv_kJwq-PlbMtz_pMBo-1" target="Oxv_kJwq-PlbMtz_pMBo-2">
          <mxGeometry relative="1" as="geometry" />
        </mxCell>
        <mxCell id="Oxv_kJwq-PlbMtz_pMBo-1" value="void arr_to_file(int* arr, int size, string filename)" style="shape=process;whiteSpace=wrap;html=1;backgroundOutline=1;size=0.03571428571428571;" vertex="1" parent="1">
          <mxGeometry x="260" y="40" width="280" height="40" as="geometry" />
        </mxCell>
        <mxCell id="Oxv_kJwq-PlbMtz_pMBo-6" value="" style="edgeStyle=orthogonalEdgeStyle;rounded=0;orthogonalLoop=1;jettySize=auto;html=1;" edge="1" parent="1" source="Oxv_kJwq-PlbMtz_pMBo-2" target="Oxv_kJwq-PlbMtz_pMBo-5">
          <mxGeometry relative="1" as="geometry" />
        </mxCell>
        <mxCell id="Oxv_kJwq-PlbMtz_pMBo-2" value="ofstream fout(filename);" style="whiteSpace=wrap;html=1;" vertex="1" parent="1">
          <mxGeometry x="330" y="120" width="140" height="40" as="geometry" />
        </mxCell>
        <mxCell id="Oxv_kJwq-PlbMtz_pMBo-4" value="{" style="text;html=1;align=center;verticalAlign=middle;resizable=0;points=[];autosize=1;strokeColor=none;fillColor=none;" vertex="1" parent="1">
          <mxGeometry x="370" y="80" width="30" height="30" as="geometry" />
        </mxCell>
        <mxCell id="Oxv_kJwq-PlbMtz_pMBo-8" value="" style="edgeStyle=orthogonalEdgeStyle;rounded=0;orthogonalLoop=1;jettySize=auto;html=1;" edge="1" parent="1" source="Oxv_kJwq-PlbMtz_pMBo-5" target="Oxv_kJwq-PlbMtz_pMBo-7">
          <mxGeometry relative="1" as="geometry" />
        </mxCell>
        <mxCell id="Oxv_kJwq-PlbMtz_pMBo-13" value="" style="edgeStyle=orthogonalEdgeStyle;rounded=0;orthogonalLoop=1;jettySize=auto;html=1;" edge="1" parent="1" source="Oxv_kJwq-PlbMtz_pMBo-5" target="Oxv_kJwq-PlbMtz_pMBo-12">
          <mxGeometry relative="1" as="geometry" />
        </mxCell>
        <mxCell id="Oxv_kJwq-PlbMtz_pMBo-5" value="for (int i = 0; i &amp;lt; size; i++)" style="shape=hexagon;perimeter=hexagonPerimeter2;whiteSpace=wrap;html=1;fixedSize=1;" vertex="1" parent="1">
          <mxGeometry x="320" y="180" width="160" height="40" as="geometry" />
        </mxCell>
        <mxCell id="Oxv_kJwq-PlbMtz_pMBo-11" style="edgeStyle=orthogonalEdgeStyle;rounded=0;orthogonalLoop=1;jettySize=auto;html=1;entryX=0;entryY=0.5;entryDx=0;entryDy=0;" edge="1" parent="1" source="Oxv_kJwq-PlbMtz_pMBo-7" target="Oxv_kJwq-PlbMtz_pMBo-5">
          <mxGeometry relative="1" as="geometry">
            <Array as="points">
              <mxPoint x="400" y="320" />
              <mxPoint x="300" y="320" />
              <mxPoint x="300" y="200" />
            </Array>
          </mxGeometry>
        </mxCell>
        <mxCell id="Oxv_kJwq-PlbMtz_pMBo-7" value="fout &amp;lt;&amp;lt; arr[i] &amp;lt;&amp;lt; &#39; &#39;;" style="shape=parallelogram;perimeter=parallelogramPerimeter;whiteSpace=wrap;html=1;fixedSize=1;" vertex="1" parent="1">
          <mxGeometry x="330" y="260" width="140" height="40" as="geometry" />
        </mxCell>
        <mxCell id="Oxv_kJwq-PlbMtz_pMBo-9" value="1" style="text;html=1;align=center;verticalAlign=middle;resizable=0;points=[];autosize=1;strokeColor=none;fillColor=none;" vertex="1" parent="1">
          <mxGeometry x="400" y="230" width="30" height="30" as="geometry" />
        </mxCell>
        <mxCell id="MGp1i47sKBmyYRBxqZDZ-2" style="edgeStyle=orthogonalEdgeStyle;rounded=0;orthogonalLoop=1;jettySize=auto;html=1;entryX=0.5;entryY=0;entryDx=0;entryDy=0;" edge="1" parent="1" source="Oxv_kJwq-PlbMtz_pMBo-12" target="MGp1i47sKBmyYRBxqZDZ-1">
          <mxGeometry relative="1" as="geometry" />
        </mxCell>
        <mxCell id="Oxv_kJwq-PlbMtz_pMBo-12" value="fout.close();" style="whiteSpace=wrap;html=1;" vertex="1" parent="1">
          <mxGeometry x="520" y="240" width="120" height="40" as="geometry" />
        </mxCell>
        <mxCell id="Oxv_kJwq-PlbMtz_pMBo-14" value="0" style="text;html=1;align=center;verticalAlign=middle;resizable=0;points=[];autosize=1;strokeColor=none;fillColor=none;" vertex="1" parent="1">
          <mxGeometry x="555" y="178" width="30" height="30" as="geometry" />
        </mxCell>
        <mxCell id="MGp1i47sKBmyYRBxqZDZ-1" value="return;" style="ellipse;whiteSpace=wrap;html=1;" vertex="1" parent="1">
          <mxGeometry x="520" y="300" width="120" height="40" as="geometry" />
        </mxCell>
      </root>
    </mxGraphModel>
  </diagram>
  <diagram id="AQFISe9txKZGrAU0e7PU" name="merge">
    <mxGraphModel dx="1290" dy="717" grid="1" gridSize="10" guides="1" tooltips="1" connect="1" arrows="1" fold="1" page="1" pageScale="1" pageWidth="827" pageHeight="1169" math="0" shadow="0">
      <root>
        <mxCell id="0" />
        <mxCell id="1" parent="0" />
        <mxCell id="YiMQon4fGLWJJqDEM6vL-1" value="" style="edgeStyle=orthogonalEdgeStyle;rounded=0;orthogonalLoop=1;jettySize=auto;html=1;" edge="1" parent="1" source="YiMQon4fGLWJJqDEM6vL-2" target="YiMQon4fGLWJJqDEM6vL-4">
          <mxGeometry relative="1" as="geometry" />
        </mxCell>
        <mxCell id="YiMQon4fGLWJJqDEM6vL-2" value="void merge(int* arr, int start, int end, int mid)" style="shape=process;whiteSpace=wrap;html=1;backgroundOutline=1;size=0.04;" vertex="1" parent="1">
          <mxGeometry x="270" y="80" width="260" height="40" as="geometry" />
        </mxCell>
        <mxCell id="YiMQon4fGLWJJqDEM6vL-3" value="" style="edgeStyle=orthogonalEdgeStyle;rounded=0;orthogonalLoop=1;jettySize=auto;html=1;" edge="1" parent="1" source="YiMQon4fGLWJJqDEM6vL-4" target="YiMQon4fGLWJJqDEM6vL-7">
          <mxGeometry relative="1" as="geometry" />
        </mxCell>
        <mxCell id="YiMQon4fGLWJJqDEM6vL-4" value="int left = start;" style="whiteSpace=wrap;html=1;" vertex="1" parent="1">
          <mxGeometry x="340" y="160" width="120" height="40" as="geometry" />
        </mxCell>
        <mxCell id="YiMQon4fGLWJJqDEM6vL-5" value="{" style="text;html=1;align=center;verticalAlign=middle;resizable=0;points=[];autosize=1;strokeColor=none;fillColor=none;" vertex="1" parent="1">
          <mxGeometry x="370" y="120" width="30" height="30" as="geometry" />
        </mxCell>
        <mxCell id="YiMQon4fGLWJJqDEM6vL-6" value="" style="edgeStyle=orthogonalEdgeStyle;rounded=0;orthogonalLoop=1;jettySize=auto;html=1;" edge="1" parent="1" source="YiMQon4fGLWJJqDEM6vL-7" target="YiMQon4fGLWJJqDEM6vL-9">
          <mxGeometry relative="1" as="geometry" />
        </mxCell>
        <mxCell id="YiMQon4fGLWJJqDEM6vL-7" value="int right = mid + 1;" style="whiteSpace=wrap;html=1;" vertex="1" parent="1">
          <mxGeometry x="340" y="220" width="120" height="40" as="geometry" />
        </mxCell>
        <mxCell id="YiMQon4fGLWJJqDEM6vL-8" value="" style="edgeStyle=orthogonalEdgeStyle;rounded=0;orthogonalLoop=1;jettySize=auto;html=1;" edge="1" parent="1" source="YiMQon4fGLWJJqDEM6vL-9" target="YiMQon4fGLWJJqDEM6vL-11">
          <mxGeometry relative="1" as="geometry" />
        </mxCell>
        <mxCell id="YiMQon4fGLWJJqDEM6vL-9" value="int len = end - start + 1;" style="whiteSpace=wrap;html=1;" vertex="1" parent="1">
          <mxGeometry x="335" y="280" width="130" height="40" as="geometry" />
        </mxCell>
        <mxCell id="YiMQon4fGLWJJqDEM6vL-10" value="" style="edgeStyle=orthogonalEdgeStyle;rounded=0;orthogonalLoop=1;jettySize=auto;html=1;" edge="1" parent="1" source="YiMQon4fGLWJJqDEM6vL-11" target="YiMQon4fGLWJJqDEM6vL-14">
          <mxGeometry relative="1" as="geometry" />
        </mxCell>
        <mxCell id="YiMQon4fGLWJJqDEM6vL-11" value="int* merge_arr = new int[len];" style="whiteSpace=wrap;html=1;" vertex="1" parent="1">
          <mxGeometry x="312.5" y="340" width="175" height="40" as="geometry" />
        </mxCell>
        <mxCell id="YiMQon4fGLWJJqDEM6vL-12" value="" style="edgeStyle=orthogonalEdgeStyle;rounded=0;orthogonalLoop=1;jettySize=auto;html=1;" edge="1" parent="1" source="YiMQon4fGLWJJqDEM6vL-14" target="YiMQon4fGLWJJqDEM6vL-17">
          <mxGeometry relative="1" as="geometry" />
        </mxCell>
        <mxCell id="YiMQon4fGLWJJqDEM6vL-13" style="edgeStyle=orthogonalEdgeStyle;rounded=0;orthogonalLoop=1;jettySize=auto;html=1;entryX=0.5;entryY=0;entryDx=0;entryDy=0;" edge="1" parent="1" source="YiMQon4fGLWJJqDEM6vL-14" target="YiMQon4fGLWJJqDEM6vL-28">
          <mxGeometry relative="1" as="geometry">
            <mxPoint x="400" y="680" as="targetPoint" />
            <Array as="points">
              <mxPoint x="720" y="420" />
              <mxPoint x="720" y="660" />
              <mxPoint x="400" y="660" />
              <mxPoint x="400" y="680" />
            </Array>
          </mxGeometry>
        </mxCell>
        <mxCell id="YiMQon4fGLWJJqDEM6vL-14" value="for (int i = 0; i &amp;lt; len; i++)" style="shape=hexagon;perimeter=hexagonPerimeter2;whiteSpace=wrap;html=1;fixedSize=1;" vertex="1" parent="1">
          <mxGeometry x="325" y="400" width="150" height="40" as="geometry" />
        </mxCell>
        <mxCell id="YiMQon4fGLWJJqDEM6vL-15" value="" style="edgeStyle=orthogonalEdgeStyle;rounded=0;orthogonalLoop=1;jettySize=auto;html=1;entryX=0.5;entryY=0;entryDx=0;entryDy=0;exitX=0;exitY=0.5;exitDx=0;exitDy=0;" edge="1" parent="1" source="YiMQon4fGLWJJqDEM6vL-17" target="YiMQon4fGLWJJqDEM6vL-20">
          <mxGeometry relative="1" as="geometry" />
        </mxCell>
        <mxCell id="YiMQon4fGLWJJqDEM6vL-16" value="" style="edgeStyle=orthogonalEdgeStyle;rounded=0;orthogonalLoop=1;jettySize=auto;html=1;exitX=1;exitY=0.5;exitDx=0;exitDy=0;" edge="1" parent="1" source="YiMQon4fGLWJJqDEM6vL-17" target="YiMQon4fGLWJJqDEM6vL-22">
          <mxGeometry relative="1" as="geometry" />
        </mxCell>
        <mxCell id="YiMQon4fGLWJJqDEM6vL-17" value="if (left &amp;lt;= mid &amp;amp;&amp;amp; (right &amp;gt; end || arr[left] &amp;lt; arr[right]))" style="rhombus;whiteSpace=wrap;html=1;" vertex="1" parent="1">
          <mxGeometry x="240" y="480" width="320" height="80" as="geometry" />
        </mxCell>
        <mxCell id="YiMQon4fGLWJJqDEM6vL-18" value="1" style="text;html=1;align=center;verticalAlign=middle;resizable=0;points=[];autosize=1;strokeColor=none;fillColor=none;" vertex="1" parent="1">
          <mxGeometry x="400" y="450" width="30" height="30" as="geometry" />
        </mxCell>
        <mxCell id="YiMQon4fGLWJJqDEM6vL-19" style="edgeStyle=orthogonalEdgeStyle;rounded=0;orthogonalLoop=1;jettySize=auto;html=1;exitX=0.5;exitY=1;exitDx=0;exitDy=0;" edge="1" parent="1" source="YiMQon4fGLWJJqDEM6vL-20">
          <mxGeometry relative="1" as="geometry">
            <mxPoint x="400" y="620" as="targetPoint" />
            <Array as="points">
              <mxPoint x="181" y="620" />
            </Array>
          </mxGeometry>
        </mxCell>
        <mxCell id="YiMQon4fGLWJJqDEM6vL-20" value="merge_arr[i] = arr[left++];" style="whiteSpace=wrap;html=1;" vertex="1" parent="1">
          <mxGeometry x="102.68" y="560" width="157.32" height="40" as="geometry" />
        </mxCell>
        <mxCell id="YiMQon4fGLWJJqDEM6vL-21" style="edgeStyle=orthogonalEdgeStyle;rounded=0;orthogonalLoop=1;jettySize=auto;html=1;" edge="1" parent="1" source="YiMQon4fGLWJJqDEM6vL-22">
          <mxGeometry relative="1" as="geometry">
            <mxPoint x="400" y="620" as="targetPoint" />
            <Array as="points">
              <mxPoint x="620" y="620" />
            </Array>
          </mxGeometry>
        </mxCell>
        <mxCell id="YiMQon4fGLWJJqDEM6vL-22" value="merge_arr[i] = arr[right++];" style="whiteSpace=wrap;html=1;" vertex="1" parent="1">
          <mxGeometry x="540" y="555" width="160" height="45" as="geometry" />
        </mxCell>
        <mxCell id="YiMQon4fGLWJJqDEM6vL-23" value="1" style="text;html=1;align=center;verticalAlign=middle;resizable=0;points=[];autosize=1;strokeColor=none;fillColor=none;" vertex="1" parent="1">
          <mxGeometry x="180" y="490" width="30" height="30" as="geometry" />
        </mxCell>
        <mxCell id="YiMQon4fGLWJJqDEM6vL-24" value="0" style="text;html=1;align=center;verticalAlign=middle;resizable=0;points=[];autosize=1;strokeColor=none;fillColor=none;" vertex="1" parent="1">
          <mxGeometry x="595" y="490" width="30" height="30" as="geometry" />
        </mxCell>
        <mxCell id="YiMQon4fGLWJJqDEM6vL-25" value="" style="endArrow=classic;html=1;rounded=0;entryX=0;entryY=0.5;entryDx=0;entryDy=0;" edge="1" parent="1" target="YiMQon4fGLWJJqDEM6vL-14">
          <mxGeometry width="50" height="50" relative="1" as="geometry">
            <mxPoint x="400" y="620" as="sourcePoint" />
            <mxPoint x="230" y="410" as="targetPoint" />
            <Array as="points">
              <mxPoint x="400" y="640" />
              <mxPoint x="80" y="640" />
              <mxPoint x="80" y="420" />
            </Array>
          </mxGeometry>
        </mxCell>
        <mxCell id="YiMQon4fGLWJJqDEM6vL-26" value="0" style="text;html=1;align=center;verticalAlign=middle;resizable=0;points=[];autosize=1;strokeColor=none;fillColor=none;" vertex="1" parent="1">
          <mxGeometry x="690" y="390" width="30" height="30" as="geometry" />
        </mxCell>
        <mxCell id="YiMQon4fGLWJJqDEM6vL-27" value="" style="edgeStyle=orthogonalEdgeStyle;rounded=0;orthogonalLoop=1;jettySize=auto;html=1;" edge="1" parent="1" source="YiMQon4fGLWJJqDEM6vL-28" target="YiMQon4fGLWJJqDEM6vL-31">
          <mxGeometry relative="1" as="geometry" />
        </mxCell>
        <mxCell id="YiMQon4fGLWJJqDEM6vL-28" value="int ind = start;" style="rounded=0;whiteSpace=wrap;html=1;" vertex="1" parent="1">
          <mxGeometry x="340" y="680" width="120" height="40" as="geometry" />
        </mxCell>
        <mxCell id="YiMQon4fGLWJJqDEM6vL-29" value="" style="edgeStyle=orthogonalEdgeStyle;rounded=0;orthogonalLoop=1;jettySize=auto;html=1;" edge="1" parent="1" source="YiMQon4fGLWJJqDEM6vL-31" target="YiMQon4fGLWJJqDEM6vL-33">
          <mxGeometry relative="1" as="geometry" />
        </mxCell>
        <mxCell id="YiMQon4fGLWJJqDEM6vL-30" style="edgeStyle=orthogonalEdgeStyle;rounded=0;orthogonalLoop=1;jettySize=auto;html=1;" edge="1" parent="1" source="YiMQon4fGLWJJqDEM6vL-31" target="YiMQon4fGLWJJqDEM6vL-37">
          <mxGeometry relative="1" as="geometry">
            <mxPoint x="400" y="920" as="targetPoint" />
            <Array as="points">
              <mxPoint x="510" y="760" />
              <mxPoint x="510" y="900" />
              <mxPoint x="400" y="900" />
            </Array>
          </mxGeometry>
        </mxCell>
        <mxCell id="YiMQon4fGLWJJqDEM6vL-31" value="for (int i = 0; i &amp;lt; len; i++)" style="shape=hexagon;perimeter=hexagonPerimeter2;whiteSpace=wrap;html=1;fixedSize=1;rounded=0;" vertex="1" parent="1">
          <mxGeometry x="325" y="740" width="150" height="40" as="geometry" />
        </mxCell>
        <mxCell id="YiMQon4fGLWJJqDEM6vL-32" style="edgeStyle=orthogonalEdgeStyle;rounded=0;orthogonalLoop=1;jettySize=auto;html=1;entryX=0;entryY=0.5;entryDx=0;entryDy=0;" edge="1" parent="1" source="YiMQon4fGLWJJqDEM6vL-33" target="YiMQon4fGLWJJqDEM6vL-31">
          <mxGeometry relative="1" as="geometry">
            <Array as="points">
              <mxPoint x="400" y="880" />
              <mxPoint x="305" y="880" />
              <mxPoint x="305" y="760" />
            </Array>
          </mxGeometry>
        </mxCell>
        <mxCell id="YiMQon4fGLWJJqDEM6vL-33" value="arr[ind++] = merge_arr[i];" style="whiteSpace=wrap;html=1;rounded=0;" vertex="1" parent="1">
          <mxGeometry x="330" y="820" width="140" height="40" as="geometry" />
        </mxCell>
        <mxCell id="YiMQon4fGLWJJqDEM6vL-34" value="1" style="text;html=1;align=center;verticalAlign=middle;resizable=0;points=[];autosize=1;strokeColor=none;fillColor=none;" vertex="1" parent="1">
          <mxGeometry x="400" y="790" width="30" height="30" as="geometry" />
        </mxCell>
        <mxCell id="YiMQon4fGLWJJqDEM6vL-35" value="0" style="text;html=1;align=center;verticalAlign=middle;resizable=0;points=[];autosize=1;strokeColor=none;fillColor=none;" vertex="1" parent="1">
          <mxGeometry x="487.5" y="730" width="30" height="30" as="geometry" />
        </mxCell>
        <mxCell id="YiMQon4fGLWJJqDEM6vL-36" style="edgeStyle=orthogonalEdgeStyle;rounded=0;orthogonalLoop=1;jettySize=auto;html=1;entryX=0.5;entryY=0;entryDx=0;entryDy=0;" edge="1" parent="1" source="YiMQon4fGLWJJqDEM6vL-37" target="YiMQon4fGLWJJqDEM6vL-38">
          <mxGeometry relative="1" as="geometry" />
        </mxCell>
        <mxCell id="YiMQon4fGLWJJqDEM6vL-37" value="delete[] merge_arr;" style="rounded=0;whiteSpace=wrap;html=1;" vertex="1" parent="1">
          <mxGeometry x="340" y="920" width="120" height="40" as="geometry" />
        </mxCell>
        <mxCell id="YiMQon4fGLWJJqDEM6vL-38" value="return;" style="ellipse;whiteSpace=wrap;html=1;" vertex="1" parent="1">
          <mxGeometry x="340" y="980" width="120" height="40" as="geometry" />
        </mxCell>
        <mxCell id="YiMQon4fGLWJJqDEM6vL-39" value="}" style="text;html=1;align=center;verticalAlign=middle;resizable=0;points=[];autosize=1;strokeColor=none;fillColor=none;" vertex="1" parent="1">
          <mxGeometry x="400" y="1020" width="30" height="30" as="geometry" />
        </mxCell>
      </root>
    </mxGraphModel>
  </diagram>
  <diagram id="k5_bgtZbFU8T3xe2M1B3" name="natural_sort">
    <mxGraphModel dx="1433" dy="797" grid="1" gridSize="10" guides="1" tooltips="1" connect="1" arrows="1" fold="1" page="1" pageScale="1" pageWidth="827" pageHeight="1169" math="0" shadow="0">
      <root>
        <mxCell id="0" />
        <mxCell id="1" parent="0" />
        <mxCell id="DH8UclCSbRKk9kptR93E-3" value="" style="edgeStyle=orthogonalEdgeStyle;rounded=0;orthogonalLoop=1;jettySize=auto;html=1;" edge="1" parent="1" source="DH8UclCSbRKk9kptR93E-1" target="DH8UclCSbRKk9kptR93E-2">
          <mxGeometry relative="1" as="geometry" />
        </mxCell>
        <mxCell id="DH8UclCSbRKk9kptR93E-1" value="void natural_sort(int* arr, int size)" style="shape=process;whiteSpace=wrap;html=1;backgroundOutline=1;size=0.05;" vertex="1" parent="1">
          <mxGeometry x="300" y="40" width="200" height="40" as="geometry" />
        </mxCell>
        <mxCell id="DH8UclCSbRKk9kptR93E-8" value="" style="edgeStyle=orthogonalEdgeStyle;rounded=0;orthogonalLoop=1;jettySize=auto;html=1;" edge="1" parent="1" source="DH8UclCSbRKk9kptR93E-2" target="DH8UclCSbRKk9kptR93E-7">
          <mxGeometry relative="1" as="geometry" />
        </mxCell>
        <mxCell id="DH8UclCSbRKk9kptR93E-2" value="int i = 0;" style="whiteSpace=wrap;html=1;" vertex="1" parent="1">
          <mxGeometry x="340" y="120" width="120" height="40" as="geometry" />
        </mxCell>
        <mxCell id="DH8UclCSbRKk9kptR93E-4" value="{" style="text;html=1;align=center;verticalAlign=middle;resizable=0;points=[];autosize=1;strokeColor=none;fillColor=none;" vertex="1" parent="1">
          <mxGeometry x="370" y="80" width="30" height="30" as="geometry" />
        </mxCell>
        <mxCell id="DH8UclCSbRKk9kptR93E-10" value="" style="edgeStyle=orthogonalEdgeStyle;rounded=0;orthogonalLoop=1;jettySize=auto;html=1;" edge="1" parent="1" source="DH8UclCSbRKk9kptR93E-7" target="DH8UclCSbRKk9kptR93E-9">
          <mxGeometry relative="1" as="geometry" />
        </mxCell>
        <mxCell id="DH8UclCSbRKk9kptR93E-46" style="edgeStyle=orthogonalEdgeStyle;rounded=0;orthogonalLoop=1;jettySize=auto;html=1;entryX=0.5;entryY=0;entryDx=0;entryDy=0;" edge="1" parent="1" source="DH8UclCSbRKk9kptR93E-7" target="H-OBII7Vf5t6gU0s7DAF-1">
          <mxGeometry relative="1" as="geometry">
            <mxPoint x="639.9999999999998" y="260.0000000000001" as="targetPoint" />
          </mxGeometry>
        </mxCell>
        <mxCell id="DH8UclCSbRKk9kptR93E-7" value="while (i &amp;lt; size)" style="rhombus;whiteSpace=wrap;html=1;" vertex="1" parent="1">
          <mxGeometry x="340" y="200" width="120" height="40" as="geometry" />
        </mxCell>
        <mxCell id="DH8UclCSbRKk9kptR93E-16" value="" style="edgeStyle=orthogonalEdgeStyle;rounded=0;orthogonalLoop=1;jettySize=auto;html=1;" edge="1" parent="1" source="DH8UclCSbRKk9kptR93E-9" target="DH8UclCSbRKk9kptR93E-15">
          <mxGeometry relative="1" as="geometry" />
        </mxCell>
        <mxCell id="DH8UclCSbRKk9kptR93E-9" value="int mid = 0, end = 0;" style="whiteSpace=wrap;html=1;" vertex="1" parent="1">
          <mxGeometry x="340" y="280" width="120" height="40" as="geometry" />
        </mxCell>
        <mxCell id="DH8UclCSbRKk9kptR93E-11" value="1" style="text;html=1;align=center;verticalAlign=middle;resizable=0;points=[];autosize=1;strokeColor=none;fillColor=none;" vertex="1" parent="1">
          <mxGeometry x="399" y="250" width="30" height="30" as="geometry" />
        </mxCell>
        <mxCell id="DH8UclCSbRKk9kptR93E-12" value="{" style="text;html=1;align=center;verticalAlign=middle;resizable=0;points=[];autosize=1;strokeColor=none;fillColor=none;" vertex="1" parent="1">
          <mxGeometry x="370" y="240" width="30" height="30" as="geometry" />
        </mxCell>
        <mxCell id="DH8UclCSbRKk9kptR93E-18" value="" style="edgeStyle=orthogonalEdgeStyle;rounded=0;orthogonalLoop=1;jettySize=auto;html=1;" edge="1" parent="1" source="DH8UclCSbRKk9kptR93E-15" target="DH8UclCSbRKk9kptR93E-17">
          <mxGeometry relative="1" as="geometry" />
        </mxCell>
        <mxCell id="DH8UclCSbRKk9kptR93E-15" value="i = 0;" style="whiteSpace=wrap;html=1;" vertex="1" parent="1">
          <mxGeometry x="340" y="340" width="120" height="40" as="geometry" />
        </mxCell>
        <mxCell id="DH8UclCSbRKk9kptR93E-22" value="" style="edgeStyle=orthogonalEdgeStyle;rounded=0;orthogonalLoop=1;jettySize=auto;html=1;" edge="1" parent="1" source="DH8UclCSbRKk9kptR93E-17" target="DH8UclCSbRKk9kptR93E-21">
          <mxGeometry relative="1" as="geometry" />
        </mxCell>
        <mxCell id="DH8UclCSbRKk9kptR93E-25" style="edgeStyle=orthogonalEdgeStyle;rounded=0;orthogonalLoop=1;jettySize=auto;html=1;" edge="1" parent="1" source="DH8UclCSbRKk9kptR93E-17" target="DH8UclCSbRKk9kptR93E-27">
          <mxGeometry relative="1" as="geometry">
            <mxPoint x="400" y="620" as="targetPoint" />
            <Array as="points">
              <mxPoint x="520" y="450" />
              <mxPoint x="520" y="600" />
              <mxPoint x="400" y="600" />
            </Array>
          </mxGeometry>
        </mxCell>
        <mxCell id="DH8UclCSbRKk9kptR93E-17" value="while (i &amp;lt; size - 1 &amp;amp;&amp;amp;&lt;div&gt;&amp;nbsp;arr[i] &amp;lt; arr[i + 1])&lt;/div&gt;" style="rhombus;whiteSpace=wrap;html=1;" vertex="1" parent="1">
          <mxGeometry x="315" y="420" width="170" height="60" as="geometry" />
        </mxCell>
        <mxCell id="DH8UclCSbRKk9kptR93E-24" style="edgeStyle=orthogonalEdgeStyle;rounded=0;orthogonalLoop=1;jettySize=auto;html=1;" edge="1" parent="1" source="DH8UclCSbRKk9kptR93E-21">
          <mxGeometry relative="1" as="geometry">
            <mxPoint x="400" y="400.0000000000001" as="targetPoint" />
            <Array as="points">
              <mxPoint x="400" y="580" />
              <mxPoint x="300" y="580" />
              <mxPoint x="300" y="400" />
            </Array>
          </mxGeometry>
        </mxCell>
        <mxCell id="DH8UclCSbRKk9kptR93E-21" value="i++;" style="whiteSpace=wrap;html=1;" vertex="1" parent="1">
          <mxGeometry x="340" y="520" width="120" height="40" as="geometry" />
        </mxCell>
        <mxCell id="DH8UclCSbRKk9kptR93E-23" value="1" style="text;html=1;align=center;verticalAlign=middle;resizable=0;points=[];autosize=1;strokeColor=none;fillColor=none;" vertex="1" parent="1">
          <mxGeometry x="400" y="490" width="30" height="30" as="geometry" />
        </mxCell>
        <mxCell id="DH8UclCSbRKk9kptR93E-26" value="0" style="text;html=1;align=center;verticalAlign=middle;resizable=0;points=[];autosize=1;strokeColor=none;fillColor=none;" vertex="1" parent="1">
          <mxGeometry x="495" y="420" width="30" height="30" as="geometry" />
        </mxCell>
        <mxCell id="DH8UclCSbRKk9kptR93E-29" value="" style="edgeStyle=orthogonalEdgeStyle;rounded=0;orthogonalLoop=1;jettySize=auto;html=1;" edge="1" parent="1" source="DH8UclCSbRKk9kptR93E-27" target="DH8UclCSbRKk9kptR93E-28">
          <mxGeometry relative="1" as="geometry" />
        </mxCell>
        <mxCell id="DH8UclCSbRKk9kptR93E-27" value="mid = i;" style="rounded=0;whiteSpace=wrap;html=1;" vertex="1" parent="1">
          <mxGeometry x="340" y="620" width="120" height="40" as="geometry" />
        </mxCell>
        <mxCell id="DH8UclCSbRKk9kptR93E-28" value="i++;" style="rounded=0;whiteSpace=wrap;html=1;" vertex="1" parent="1">
          <mxGeometry x="340" y="680" width="120" height="40" as="geometry" />
        </mxCell>
        <mxCell id="DH8UclCSbRKk9kptR93E-30" value="" style="edgeStyle=orthogonalEdgeStyle;rounded=0;orthogonalLoop=1;jettySize=auto;html=1;" edge="1" parent="1" target="DH8UclCSbRKk9kptR93E-33">
          <mxGeometry relative="1" as="geometry">
            <mxPoint x="400" y="720" as="sourcePoint" />
          </mxGeometry>
        </mxCell>
        <mxCell id="DH8UclCSbRKk9kptR93E-31" value="" style="edgeStyle=orthogonalEdgeStyle;rounded=0;orthogonalLoop=1;jettySize=auto;html=1;" edge="1" parent="1" source="DH8UclCSbRKk9kptR93E-33" target="DH8UclCSbRKk9kptR93E-35">
          <mxGeometry relative="1" as="geometry" />
        </mxCell>
        <mxCell id="DH8UclCSbRKk9kptR93E-32" style="edgeStyle=orthogonalEdgeStyle;rounded=0;orthogonalLoop=1;jettySize=auto;html=1;" edge="1" parent="1" source="DH8UclCSbRKk9kptR93E-33" target="DH8UclCSbRKk9kptR93E-39">
          <mxGeometry relative="1" as="geometry">
            <mxPoint x="400" y="960" as="targetPoint" />
            <Array as="points">
              <mxPoint x="520" y="790" />
              <mxPoint x="520" y="940" />
              <mxPoint x="400" y="940" />
            </Array>
          </mxGeometry>
        </mxCell>
        <mxCell id="DH8UclCSbRKk9kptR93E-33" value="while (i &amp;lt; size - 1 &amp;amp;&amp;amp;&lt;div&gt;&amp;nbsp;arr[i] &amp;lt; arr[i + 1])&lt;br&gt;&lt;/div&gt;" style="rhombus;whiteSpace=wrap;html=1;" vertex="1" parent="1">
          <mxGeometry x="315" y="760" width="170" height="60" as="geometry" />
        </mxCell>
        <mxCell id="DH8UclCSbRKk9kptR93E-34" style="edgeStyle=orthogonalEdgeStyle;rounded=0;orthogonalLoop=1;jettySize=auto;html=1;" edge="1" parent="1" source="DH8UclCSbRKk9kptR93E-35">
          <mxGeometry relative="1" as="geometry">
            <mxPoint x="400" y="740.0000000000001" as="targetPoint" />
            <Array as="points">
              <mxPoint x="400" y="920" />
              <mxPoint x="300" y="920" />
              <mxPoint x="300" y="740" />
            </Array>
          </mxGeometry>
        </mxCell>
        <mxCell id="DH8UclCSbRKk9kptR93E-35" value="i++;" style="whiteSpace=wrap;html=1;" vertex="1" parent="1">
          <mxGeometry x="340" y="860" width="120" height="40" as="geometry" />
        </mxCell>
        <mxCell id="DH8UclCSbRKk9kptR93E-36" value="1" style="text;html=1;align=center;verticalAlign=middle;resizable=0;points=[];autosize=1;strokeColor=none;fillColor=none;" vertex="1" parent="1">
          <mxGeometry x="400" y="830" width="30" height="30" as="geometry" />
        </mxCell>
        <mxCell id="DH8UclCSbRKk9kptR93E-37" value="0" style="text;html=1;align=center;verticalAlign=middle;resizable=0;points=[];autosize=1;strokeColor=none;fillColor=none;" vertex="1" parent="1">
          <mxGeometry x="495" y="760" width="30" height="30" as="geometry" />
        </mxCell>
        <mxCell id="DH8UclCSbRKk9kptR93E-38" value="" style="edgeStyle=orthogonalEdgeStyle;rounded=0;orthogonalLoop=1;jettySize=auto;html=1;" edge="1" parent="1" source="DH8UclCSbRKk9kptR93E-39" target="DH8UclCSbRKk9kptR93E-40">
          <mxGeometry relative="1" as="geometry" />
        </mxCell>
        <mxCell id="DH8UclCSbRKk9kptR93E-39" value="end = i;" style="rounded=0;whiteSpace=wrap;html=1;" vertex="1" parent="1">
          <mxGeometry x="340" y="960" width="120" height="40" as="geometry" />
        </mxCell>
        <mxCell id="DH8UclCSbRKk9kptR93E-42" value="" style="edgeStyle=orthogonalEdgeStyle;rounded=0;orthogonalLoop=1;jettySize=auto;html=1;" edge="1" parent="1" source="DH8UclCSbRKk9kptR93E-40" target="DH8UclCSbRKk9kptR93E-41">
          <mxGeometry relative="1" as="geometry" />
        </mxCell>
        <mxCell id="DH8UclCSbRKk9kptR93E-40" value="i++;" style="rounded=0;whiteSpace=wrap;html=1;" vertex="1" parent="1">
          <mxGeometry x="340" y="1020" width="120" height="40" as="geometry" />
        </mxCell>
        <mxCell id="DH8UclCSbRKk9kptR93E-44" style="edgeStyle=orthogonalEdgeStyle;rounded=0;orthogonalLoop=1;jettySize=auto;html=1;" edge="1" parent="1" source="DH8UclCSbRKk9kptR93E-41">
          <mxGeometry relative="1" as="geometry">
            <mxPoint x="400" y="180" as="targetPoint" />
            <Array as="points">
              <mxPoint x="400" y="1140" />
              <mxPoint x="240" y="1140" />
              <mxPoint x="240" y="180" />
            </Array>
          </mxGeometry>
        </mxCell>
        <mxCell id="DH8UclCSbRKk9kptR93E-41" value="merge(arr, 0, end, mid);" style="rounded=0;whiteSpace=wrap;html=1;" vertex="1" parent="1">
          <mxGeometry x="330" y="1080" width="140" height="40" as="geometry" />
        </mxCell>
        <mxCell id="DH8UclCSbRKk9kptR93E-45" value="}" style="text;html=1;align=center;verticalAlign=middle;resizable=0;points=[];autosize=1;strokeColor=none;fillColor=none;" vertex="1" parent="1">
          <mxGeometry x="400" y="1120" width="30" height="30" as="geometry" />
        </mxCell>
        <mxCell id="H-OBII7Vf5t6gU0s7DAF-1" value="return;" style="ellipse;whiteSpace=wrap;html=1;" vertex="1" parent="1">
          <mxGeometry x="580" y="260" width="120" height="40" as="geometry" />
        </mxCell>
        <mxCell id="H-OBII7Vf5t6gU0s7DAF-2" value="}" style="text;html=1;align=center;verticalAlign=middle;resizable=0;points=[];autosize=1;strokeColor=none;fillColor=none;" vertex="1" parent="1">
          <mxGeometry x="640" y="300" width="30" height="30" as="geometry" />
        </mxCell>
      </root>
    </mxGraphModel>
  </diagram>
</mxfile>
